<svg version="1.1" xmlns="http://www.w3.org/2000/svg" xmlns:xlink="http://www.w3.org/1999/xlink" width="989.078125" height="560"><defs/><g><text fill="#eeeeee" stroke="none" font-family="Arial" font-size="24px" font-style="normal" font-weight="normal" text-decoration="none" x="0" y="0"></text><text fill="#eeeeee" stroke="none" font-family="Arial" font-size="24px" font-style="normal" font-weight="normal" text-decoration="none" x="0" y="30"></text><text fill="#eeeeee" stroke="none" font-family="Arial" font-size="24px" font-style="normal" font-weight="normal" text-decoration="none" x="0" y="60"></text><text fill="#eeeeee" stroke="none" font-family="Arial" font-size="24px" font-style="normal" font-weight="normal" text-decoration="none" x="0" y="90"></text><text fill="#eeeeee" stroke="none" font-family="Arial" font-size="24px" font-style="normal" font-weight="normal" text-decoration="none" x="0" y="120"></text><text fill="#eeeeee" stroke="none" font-family="Arial" font-size="24px" font-style="normal" font-weight="normal" text-decoration="none" x="0" y="150"></text><text fill="#eeeeee" stroke="none" font-family="Arial" font-size="24px" font-style="normal" font-weight="normal" text-decoration="none" x="0" y="180"></text><text fill="#eeeeee" stroke="none" font-family="Arial" font-size="24px" font-style="normal" font-weight="normal" text-decoration="none" x="0" y="210"></text><text fill="#eeeeee" stroke="none" font-family="Arial" font-size="24px" font-style="normal" font-weight="normal" text-decoration="none" x="0" y="240"></text><text fill="#eeeeee" stroke="none" font-family="Arial" font-size="24px" font-style="normal" font-weight="normal" text-decoration="none" x="0" y="270"></text><text fill="#eeeeee" stroke="none" font-family="Arial" font-size="24px" font-style="normal" font-weight="normal" text-decoration="none" x="0" y="300"></text><text fill="#eeeeee" stroke="none" font-family="Arial" font-size="24px" font-style="normal" font-weight="normal" text-decoration="none" x="0" y="330"></text><text fill="#eeeeee" stroke="none" font-family="Arial" font-size="24px" font-style="normal" font-weight="normal" text-decoration="none" x="0" y="360"></text><text fill="#eeeeee" stroke="none" font-family="Arial" font-size="24px" font-style="normal" font-weight="normal" text-decoration="none" x="0" y="390"></text><text fill="#eeeeee" stroke="none" font-family="Arial" font-size="24px" font-style="normal" font-weight="normal" text-decoration="none" x="0" y="420"></text><text fill="#eeeeee" stroke="none" font-family="Arial" font-size="24px" font-style="normal" font-weight="normal" text-decoration="none" x="0" y="450"></text><text fill="#eeeeee" stroke="none" font-family="Arial" font-size="24px" font-style="normal" font-weight="normal" text-decoration="none" x="0" y="480"></text><text fill="#eeeeee" stroke="none" font-family="Arial" font-size="24px" font-style="normal" font-weight="normal" text-decoration="none" x="0" y="510"></text><text fill="#eeeeee" stroke="none" font-family="Arial" font-size="24px" font-style="normal" font-weight="normal" text-decoration="none" x="0" y="540"></text><text fill="#eeeeee" stroke="none" font-family="Arial" font-size="24px" font-style="normal" font-weight="normal" text-decoration="none" x="200" y="0"></text><text fill="#eeeeee" stroke="none" font-family="Arial" font-size="24px" font-style="normal" font-weight="normal" text-decoration="none" x="200" y="30"></text><text fill="#eeeeee" stroke="none" font-family="Arial" font-size="24px" font-style="normal" font-weight="normal" text-decoration="none" x="200" y="60"></text><text fill="#eeeeee" stroke="none" font-family="Arial" font-size="24px" font-style="normal" font-weight="normal" text-decoration="none" x="200" y="90"></text><text fill="#eeeeee" stroke="none" font-family="Arial" font-size="24px" font-style="normal" font-weight="normal" text-decoration="none" x="200" y="120"></text><text fill="#eeeeee" stroke="none" font-family="Arial" font-size="24px" font-style="normal" font-weight="normal" text-decoration="none" x="200" y="150"></text><text fill="#eeeeee" stroke="none" font-family="Arial" font-size="24px" font-style="normal" font-weight="normal" text-decoration="none" x="200" y="180"></text><text fill="#eeeeee" stroke="none" font-family="Arial" font-size="24px" font-style="normal" font-weight="normal" text-decoration="none" x="200" y="210"></text><text fill="#eeeeee" stroke="none" font-family="Arial" font-size="24px" font-style="normal" font-weight="normal" text-decoration="none" x="200" y="240"></text><text fill="#eeeeee" stroke="none" font-family="Arial" font-size="24px" font-style="normal" font-weight="normal" text-decoration="none" x="200" y="270"></text><text fill="#eeeeee" stroke="none" font-family="Arial" font-size="24px" font-style="normal" font-weight="normal" text-decoration="none" x="200" y="300"></text><text fill="#eeeeee" stroke="none" font-family="Arial" font-size="24px" font-style="normal" font-weight="normal" text-decoration="none" x="200" y="330"></text><text fill="#eeeeee" stroke="none" font-family="Arial" font-size="24px" font-style="normal" font-weight="normal" text-decoration="none" x="200" y="360"></text><text fill="#eeeeee" stroke="none" font-family="Arial" font-size="24px" font-style="normal" font-weight="normal" text-decoration="none" x="200" y="390"></text><text fill="#eeeeee" stroke="none" font-family="Arial" font-size="24px" font-style="normal" font-weight="normal" text-decoration="none" x="200" y="420"></text><text fill="#eeeeee" stroke="none" font-family="Arial" font-size="24px" font-style="normal" font-weight="normal" text-decoration="none" x="200" y="450"></text><text fill="#eeeeee" stroke="none" font-family="Arial" font-size="24px" font-style="normal" font-weight="normal" text-decoration="none" x="200" y="480"></text><text fill="#eeeeee" stroke="none" font-family="Arial" font-size="24px" font-style="normal" font-weight="normal" text-decoration="none" x="200" y="510"></text><text fill="#eeeeee" stroke="none" font-family="Arial" font-size="24px" font-style="normal" font-weight="normal" text-decoration="none" x="200" y="540"></text><text fill="#eeeeee" stroke="none" font-family="Arial" font-size="24px" font-style="normal" font-weight="normal" text-decoration="none" x="400" y="0"></text><text fill="#eeeeee" stroke="none" font-family="Arial" font-size="24px" font-style="normal" font-weight="normal" text-decoration="none" x="400" y="30"></text><text fill="#eeeeee" stroke="none" font-family="Arial" font-size="24px" font-style="normal" font-weight="normal" text-decoration="none" x="400" y="60"></text><text fill="#eeeeee" stroke="none" font-family="Arial" font-size="24px" font-style="normal" font-weight="normal" text-decoration="none" x="400" y="90"></text><text fill="#eeeeee" stroke="none" font-family="Arial" font-size="24px" font-style="normal" font-weight="normal" text-decoration="none" x="400" y="120"></text><text fill="#eeeeee" stroke="none" font-family="Arial" font-size="24px" font-style="normal" font-weight="normal" text-decoration="none" x="400" y="150"></text><text fill="#eeeeee" stroke="none" font-family="Arial" font-size="24px" font-style="normal" font-weight="normal" text-decoration="none" x="400" y="180"></text><text fill="#eeeeee" stroke="none" font-family="Arial" font-size="24px" font-style="normal" font-weight="normal" text-decoration="none" x="400" y="210"></text><text fill="#eeeeee" stroke="none" font-family="Arial" font-size="24px" font-style="normal" font-weight="normal" text-decoration="none" x="400" y="240"></text><text fill="#eeeeee" stroke="none" font-family="Arial" font-size="24px" font-style="normal" font-weight="normal" text-decoration="none" x="400" y="270"></text><text fill="#eeeeee" stroke="none" font-family="Arial" font-size="24px" font-style="normal" font-weight="normal" text-decoration="none" x="400" y="300"></text><text fill="#eeeeee" stroke="none" font-family="Arial" font-size="24px" font-style="normal" font-weight="normal" text-decoration="none" x="400" y="330"></text><text fill="#eeeeee" stroke="none" font-family="Arial" font-size="24px" font-style="normal" font-weight="normal" text-decoration="none" x="400" y="360"></text><text fill="#eeeeee" stroke="none" font-family="Arial" font-size="24px" font-style="normal" font-weight="normal" text-decoration="none" x="400" y="390"></text><text fill="#eeeeee" stroke="none" font-family="Arial" font-size="24px" font-style="normal" font-weight="normal" text-decoration="none" x="400" y="420"></text><text fill="#eeeeee" stroke="none" font-family="Arial" font-size="24px" font-style="normal" font-weight="normal" text-decoration="none" x="400" y="450"></text><text fill="#eeeeee" stroke="none" font-family="Arial" font-size="24px" font-style="normal" font-weight="normal" text-decoration="none" x="400" y="480"></text><text fill="#eeeeee" stroke="none" font-family="Arial" font-size="24px" font-style="normal" font-weight="normal" text-decoration="none" x="400" y="510"></text><text fill="#eeeeee" stroke="none" font-family="Arial" font-size="24px" font-style="normal" font-weight="normal" text-decoration="none" x="400" y="540"></text><text fill="#eeeeee" stroke="none" font-family="Arial" font-size="24px" font-style="normal" font-weight="normal" text-decoration="none" x="600" y="0"></text><text fill="#eeeeee" stroke="none" font-family="Arial" font-size="24px" font-style="normal" font-weight="normal" text-decoration="none" x="600" y="30"></text><text fill="#eeeeee" stroke="none" font-family="Arial" font-size="24px" font-style="normal" font-weight="normal" text-decoration="none" x="600" y="60"></text><text fill="#eeeeee" stroke="none" font-family="Arial" font-size="24px" font-style="normal" font-weight="normal" text-decoration="none" x="600" y="90"></text><text fill="#eeeeee" stroke="none" font-family="Arial" font-size="24px" font-style="normal" font-weight="normal" text-decoration="none" x="600" y="120"></text><text fill="#eeeeee" stroke="none" font-family="Arial" font-size="24px" font-style="normal" font-weight="normal" text-decoration="none" x="600" y="150"></text><text fill="#eeeeee" stroke="none" font-family="Arial" font-size="24px" font-style="normal" font-weight="normal" text-decoration="none" x="600" y="180"></text><text fill="#eeeeee" stroke="none" font-family="Arial" font-size="24px" font-style="normal" font-weight="normal" text-decoration="none" x="600" y="210"></text><text fill="#eeeeee" stroke="none" font-family="Arial" font-size="24px" font-style="normal" font-weight="normal" text-decoration="none" x="600" y="240"></text><text fill="#eeeeee" stroke="none" font-family="Arial" font-size="24px" font-style="normal" font-weight="normal" text-decoration="none" x="600" y="270"></text><text fill="#eeeeee" stroke="none" font-family="Arial" font-size="24px" font-style="normal" font-weight="normal" text-decoration="none" x="600" y="300"></text><text fill="#eeeeee" stroke="none" font-family="Arial" font-size="24px" font-style="normal" font-weight="normal" text-decoration="none" x="600" y="330"></text><text fill="#eeeeee" stroke="none" font-family="Arial" font-size="24px" font-style="normal" font-weight="normal" text-decoration="none" x="600" y="360"></text><text fill="#eeeeee" stroke="none" font-family="Arial" font-size="24px" font-style="normal" font-weight="normal" text-decoration="none" x="600" y="390"></text><text fill="#eeeeee" stroke="none" font-family="Arial" font-size="24px" font-style="normal" font-weight="normal" text-decoration="none" x="600" y="420"></text><text fill="#eeeeee" stroke="none" font-family="Arial" font-size="24px" font-style="normal" font-weight="normal" text-decoration="none" x="600" y="450"></text><text fill="#eeeeee" stroke="none" font-family="Arial" font-size="24px" font-style="normal" font-weight="normal" text-decoration="none" x="600" y="480"></text><text fill="#eeeeee" stroke="none" font-family="Arial" font-size="24px" font-style="normal" font-weight="normal" text-decoration="none" x="600" y="510"></text><text fill="#eeeeee" stroke="none" font-family="Arial" font-size="24px" font-style="normal" font-weight="normal" text-decoration="none" x="600" y="540"></text><text fill="#eeeeee" stroke="none" font-family="Arial" font-size="24px" font-style="normal" font-weight="normal" text-decoration="none" x="800" y="0"></text><text fill="#eeeeee" stroke="none" font-family="Arial" font-size="24px" font-style="normal" font-weight="normal" text-decoration="none" x="800" y="30"></text><text fill="#eeeeee" stroke="none" font-family="Arial" font-size="24px" font-style="normal" font-weight="normal" text-decoration="none" x="800" y="60"></text><text fill="#eeeeee" stroke="none" font-family="Arial" font-size="24px" font-style="normal" font-weight="normal" text-decoration="none" x="800" y="90"></text><text fill="#eeeeee" stroke="none" font-family="Arial" font-size="24px" font-style="normal" font-weight="normal" text-decoration="none" x="800" y="120"></text><text fill="#eeeeee" stroke="none" font-family="Arial" font-size="24px" font-style="normal" font-weight="normal" text-decoration="none" x="800" y="150"></text><text fill="#eeeeee" stroke="none" font-family="Arial" font-size="24px" font-style="normal" font-weight="normal" text-decoration="none" x="800" y="180"></text><text fill="#eeeeee" stroke="none" font-family="Arial" font-size="24px" font-style="normal" font-weight="normal" text-decoration="none" x="800" y="210"></text><text fill="#eeeeee" stroke="none" font-family="Arial" font-size="24px" font-style="normal" font-weight="normal" text-decoration="none" x="800" y="240"></text><text fill="#eeeeee" stroke="none" font-family="Arial" font-size="24px" font-style="normal" font-weight="normal" text-decoration="none" x="800" y="270"></text><text fill="#eeeeee" stroke="none" font-family="Arial" font-size="24px" font-style="normal" font-weight="normal" text-decoration="none" x="800" y="300"></text><text fill="#eeeeee" stroke="none" font-family="Arial" font-size="24px" font-style="normal" font-weight="normal" text-decoration="none" x="800" y="330"></text><text fill="#eeeeee" stroke="none" font-family="Arial" font-size="24px" font-style="normal" font-weight="normal" text-decoration="none" x="800" y="360"></text><text fill="#eeeeee" stroke="none" font-family="Arial" font-size="24px" font-style="normal" font-weight="normal" text-decoration="none" x="800" y="390"></text><text fill="#eeeeee" stroke="none" font-family="Arial" font-size="24px" font-style="normal" font-weight="normal" text-decoration="none" x="800" y="420"></text><text fill="#eeeeee" stroke="none" font-family="Arial" font-size="24px" font-style="normal" font-weight="normal" text-decoration="none" x="800" y="450"></text><text fill="#eeeeee" stroke="none" font-family="Arial" font-size="24px" font-style="normal" font-weight="normal" text-decoration="none" x="800" y="480"></text><text fill="#eeeeee" stroke="none" font-family="Arial" font-size="24px" font-style="normal" font-weight="normal" text-decoration="none" x="800" y="510"></text><text fill="#eeeeee" stroke="none" font-family="Arial" font-size="24px" font-style="normal" font-weight="normal" text-decoration="none" x="800" y="540"></text><g transform="translate(-86,-22) scale(1,1)"><rect fill="#C0C0C0" stroke="none" x="511" y="263" width="331.23876953125" height="130" opacity="0.2"/></g><g transform="translate(-86,-22) scale(1,1)"><rect fill="#ffffff" stroke="none" x="504" y="256" width="331.23876953125" height="130"/></g><g transform="translate(-86,-22) scale(1,1)"><path fill="none" stroke="#000000" d="M 504 256 L 835.23876953125 256 L 835.23876953125 386 L 504 386 L 504 256 Z Z" stroke-miterlimit="10"/></g><g transform="translate(-86,-22) scale(1,1)"><path fill="none" stroke="#000000" d="M 504 281 L 835.23876953125 281" stroke-miterlimit="10"/></g><g transform="translate(-86,-22) scale(1,1)"><path fill="none" stroke="#000000" d="M 504 319 L 835.23876953125 319" stroke-miterlimit="10"/></g><g transform="translate(-86,-22) scale(1,1)"><g><path fill="none" stroke="none"/><text fill="#000000" stroke="none" font-family="Arial" font-size="13px" font-style="italic" font-weight="bold" text-decoration="none" x="603.940185546875" y="273.5">USimplerBaseWidget</text></g></g><g transform="translate(-86,-22) scale(1,1)"><g><path fill="none" stroke="none"/><text fill="#000000" stroke="none" font-family="Arial" font-size="13px" font-style="normal" font-weight="normal" text-decoration="none" x="509" y="297">#BasePanel: USizeBox*</text></g></g><g transform="translate(-86,-22) scale(1,1)"><g><path fill="none" stroke="none"/><text fill="#000000" stroke="none" font-family="Arial" font-size="13px" font-style="normal" font-weight="normal" text-decoration="none" x="509" y="312">#PromptPanel: USizeBox*</text></g></g><g transform="translate(-86,-22) scale(1,1)"><g><path fill="none" stroke="none"/><text fill="#000000" stroke="none" font-family="Arial" font-size="13px" font-style="normal" font-weight="normal" text-decoration="none" x="509" y="335">+RemoveBase(): void</text></g></g><g transform="translate(-86,-22) scale(1,1)"><g><path fill="none" stroke="none"/><text fill="#000000" stroke="none" font-family="Arial" font-size="13px" font-style="normal" font-weight="normal" text-decoration="none" x="509" y="350">+RemovePrompt(): void</text></g></g><g transform="translate(-86,-22) scale(1,1)"><g><path fill="none" stroke="none"/><text fill="#000000" stroke="none" font-family="Arial" font-size="13px" font-style="normal" font-weight="normal" text-decoration="none" x="509" y="365">+SetBase(Base: USimplerActivatableWidget*): void</text></g></g><g transform="translate(-86,-22) scale(1,1)"><g><path fill="none" stroke="none"/><text fill="#000000" stroke="none" font-family="Arial" font-size="13px" font-style="normal" font-weight="normal" text-decoration="none" x="509" y="380">+SetPrompt(Base: USimplerActivatableWidget*): void</text></g></g><g transform="translate(-86,-22) scale(1,1)"><rect fill="#C0C0C0" stroke="none" x="103" y="303" width="237.68701171875" height="72" opacity="0.2"/></g><g transform="translate(-86,-22) scale(1,1)"><rect fill="#ffffff" stroke="none" x="96" y="296" width="237.68701171875" height="72"/></g><g transform="translate(-86,-22) scale(1,1)"><path fill="none" stroke="#000000" d="M 96 296 L 333.68701171875 296 L 333.68701171875 368 L 96 368 L 96 296 Z Z" stroke-miterlimit="10"/></g><g transform="translate(-86,-22) scale(1,1)"><path fill="none" stroke="#000000" d="M 96 321 L 333.68701171875 321" stroke-miterlimit="10"/></g><g transform="translate(-86,-22) scale(1,1)"><path fill="none" stroke="#000000" d="M 96 359 L 333.68701171875 359" stroke-miterlimit="10"/></g><g transform="translate(-86,-22) scale(1,1)"><g><path fill="none" stroke="none"/><text fill="#000000" stroke="none" font-family="Arial" font-size="13px" font-style="italic" font-weight="bold" text-decoration="none" x="130.02294921875" y="313.5">USimplerActivatableWidget</text></g></g><g transform="translate(-86,-22) scale(1,1)"><g><path fill="none" stroke="none"/><text fill="#000000" stroke="none" font-family="Arial" font-size="13px" font-style="normal" font-weight="normal" text-decoration="none" x="101" y="337">+ActivationAnim: UWidgetAnimation*</text></g></g><g transform="translate(-86,-22) scale(1,1)"><g><path fill="none" stroke="none"/><text fill="#000000" stroke="none" font-family="Arial" font-size="13px" font-style="normal" font-weight="normal" text-decoration="none" x="101" y="352">+DeactivationAnim: UWidgetAnimation*</text></g></g><g transform="translate(-86,-22) scale(1,1)"><path fill="none" stroke="#000000" d="M 334 328 L 504 328" stroke-miterlimit="10"/></g><g transform="translate(-86,-22) scale(1,1)"><path fill="#000000" stroke="none" d="M 493.83732514237585 332.209517756016 L 504 328 L 493.83732514237585 323.790482243984 L 482 328"/></g><g transform="translate(-86,-22) scale(1,1)"><path fill="none" stroke="#000000" d="M 493.83732514237585 332.209517756016 L 504 328 L 493.83732514237585 323.790482243984 L 482 328 L 493.83732514237585 332.209517756016" stroke-miterlimit="10"/></g><g transform="translate(-86,-22) scale(1,1)"><g><path fill="none" stroke="none"/><text fill="#000000" stroke="none" font-family="Arial" font-size="13px" font-style="normal" font-weight="normal" text-decoration="none" x="351.5" y="345">2</text></g></g><g transform="translate(-86,-22) scale(1,1)"><g><path fill="none" stroke="none"/><text fill="#000000" stroke="none" font-family="Arial" font-size="13px" font-style="normal" font-weight="normal" text-decoration="none" x="375.5" y="322">-adds to its panels</text></g></g><g transform="translate(-86,-22) scale(1,1)"><g><path fill="none" stroke="none"/><text fill="#000000" stroke="none" font-family="Arial" font-size="13px" font-style="normal" font-weight="normal" text-decoration="none" x="478.5" y="345">1</text></g></g><g transform="translate(-86,-22) scale(1,1)"><rect fill="#C0C0C0" stroke="none" x="967" y="111" width="97.84814453125" height="115" opacity="0.2"/></g><g transform="translate(-86,-22) scale(1,1)"><rect fill="#ffffff" stroke="none" x="960" y="104" width="97.84814453125" height="115"/></g><g transform="translate(-86,-22) scale(1,1)"><path fill="none" stroke="#000000" d="M 960 104 L 1057.84814453125 104 L 1057.84814453125 219 L 960 219 L 960 104 Z Z" stroke-miterlimit="10"/></g><g transform="translate(-86,-22) scale(1,1)"><path fill="none" stroke="#000000" d="M 960 129 L 1057.84814453125 129" stroke-miterlimit="10"/></g><g transform="translate(-86,-22) scale(1,1)"><path fill="none" stroke="#000000" d="M 960 139 L 1057.84814453125 139" stroke-miterlimit="10"/></g><g transform="translate(-86,-22) scale(1,1)"><g><path fill="none" stroke="none"/><text fill="#000000" stroke="none" font-family="Arial" font-size="13px" font-style="italic" font-weight="bold" text-decoration="none" x="964.5" y="121.5">HUDSimplerUI</text></g></g><g transform="translate(-86,-22) scale(1,1)"><g><path fill="none" stroke="none"/><text fill="#000000" stroke="none" font-family="Arial" font-size="13px" font-style="normal" font-weight="normal" text-decoration="none" x="965" y="155">+PushBase()</text></g></g><g transform="translate(-86,-22) scale(1,1)"><g><path fill="none" stroke="none"/><text fill="#000000" stroke="none" font-family="Arial" font-size="13px" font-style="normal" font-weight="normal" text-decoration="none" x="965" y="170">+PushPrompt()</text></g></g><g transform="translate(-86,-22) scale(1,1)"><g><path fill="none" stroke="none"/><text fill="#000000" stroke="none" font-family="Arial" font-size="13px" font-style="normal" font-weight="normal" text-decoration="none" x="965" y="185">+PopPrompt()</text></g></g><g transform="translate(-86,-22) scale(1,1)"><g><path fill="none" stroke="none"/><text fill="#000000" stroke="none" font-family="Arial" font-size="13px" font-style="normal" font-weight="normal" text-decoration="none" x="965" y="200">+PopBase()</text></g></g><g transform="translate(-86,-22) scale(1,1)"><path fill="none" stroke="#000000" d="M 712 256 L 712 200 L 960 200" stroke-miterlimit="10"/></g><g transform="translate(-86,-22) scale(1,1)"><path fill="#000000" stroke="none" d="M 949.8373251423759 204.209517756016 L 960 200 L 949.8373251423758 195.790482243984 L 938 200"/></g><g transform="translate(-86,-22) scale(1,1)"><path fill="none" stroke="#000000" d="M 949.8373251423759 204.209517756016 L 960 200 L 949.8373251423758 195.790482243984 L 938 200 L 949.8373251423759 204.209517756016" stroke-miterlimit="10"/></g><g transform="translate(-86,-22) scale(1,1)"><g><path fill="none" stroke="none"/><text fill="#000000" stroke="none" font-family="Arial" font-size="13px" font-style="normal" font-weight="normal" text-decoration="none" x="735.5" y="195">#spawns and keeps reference</text></g></g><g transform="translate(-86,-22) scale(1,1)"><g><path fill="none" stroke="none"/><text fill="#000000" stroke="none" font-family="Arial" font-size="13px" font-style="normal" font-weight="normal" text-decoration="none" x="720.5" y="239">1</text></g></g><g transform="translate(-86,-22) scale(1,1)"><g><path fill="none" stroke="none"/><text fill="#000000" stroke="none" font-family="Arial" font-size="13px" font-style="normal" font-weight="normal" text-decoration="none" x="934.5" y="217">1</text></g></g><g transform="translate(-86,-22) scale(1,1)"><path fill="none" stroke="#000000" d="M 200 296 L 200 136 L 960 136" stroke-miterlimit="10"/></g><g transform="translate(-86,-22) scale(1,1)"><path fill="#FFFFFF" stroke="none" d="M 949.8373251423759 140.209517756016 L 960 136 L 949.8373251423758 131.790482243984 L 938 136"/></g><g transform="translate(-86,-22) scale(1,1)"><path fill="none" stroke="#000000" d="M 949.8373251423759 140.209517756016 L 960 136 L 949.8373251423758 131.790482243984 L 938 136 L 949.8373251423759 140.209517756016" stroke-miterlimit="10"/></g><g transform="translate(-86,-22) scale(1,1)"><g><path fill="none" stroke="none"/><text fill="#000000" stroke="none" font-family="Arial" font-size="13px" font-style="normal" font-weight="normal" text-decoration="none" x="551.680908203125" y="131">#has a base stack of</text></g></g><g transform="translate(-86,-22) scale(1,1)"><g><path fill="none" stroke="none"/><text fill="#000000" stroke="none" font-family="Arial" font-size="13px" font-style="normal" font-weight="normal" text-decoration="none" x="202.5" y="279">0..*</text></g></g><g transform="translate(-86,-22) scale(1,1)"><g><path fill="none" stroke="none"/><text fill="#000000" stroke="none" font-family="Arial" font-size="13px" font-style="normal" font-weight="normal" text-decoration="none" x="934.5" y="153">1</text></g></g><g transform="translate(-86,-22) scale(1,1)"><path fill="none" stroke="#000000" d="M 128 296 L 128 56 L 1000 56 L 1000 104" stroke-miterlimit="10"/></g><g transform="translate(-86,-22) scale(1,1)"><path fill="#FFFFFF" stroke="none" d="M 995.790482243984 93.83732514237585 L 1000 104 L 1004.209517756016 93.83732514237585 L 1000 82"/></g><g transform="translate(-86,-22) scale(1,1)"><path fill="none" stroke="#000000" d="M 995.790482243984 93.83732514237585 L 1000 104 L 1004.209517756016 93.83732514237585 L 1000 82 L 995.790482243984 93.83732514237585" stroke-miterlimit="10"/></g><g transform="translate(-86,-22) scale(1,1)"><g><path fill="none" stroke="none"/><text fill="#000000" stroke="none" font-family="Arial" font-size="13px" font-style="normal" font-weight="normal" text-decoration="none" x="543.680908203125" y="43">#has a prompt stack of</text></g></g><g transform="translate(-86,-22) scale(1,1)"><rect fill="#C0C0C0" stroke="none" x="967" y="535" width="105.078125" height="44" opacity="0.2"/></g><g transform="translate(-86,-22) scale(1,1)"><rect fill="#ffffff" stroke="none" x="960" y="528" width="105.078125" height="44"/></g><g transform="translate(-86,-22) scale(1,1)"><path fill="none" stroke="#000000" d="M 960 528 L 1065.078125 528 L 1065.078125 572 L 960 572 L 960 528 Z Z" stroke-miterlimit="10"/></g><g transform="translate(-86,-22) scale(1,1)"><path fill="none" stroke="#000000" d="M 960 553 L 1065.078125 553" stroke-miterlimit="10"/></g><g transform="translate(-86,-22) scale(1,1)"><path fill="none" stroke="#000000" d="M 960 563 L 1065.078125 563" stroke-miterlimit="10"/></g><g transform="translate(-86,-22) scale(1,1)"><g><path fill="none" stroke="none"/><text fill="#000000" stroke="none" font-family="Arial" font-size="13px" font-style="normal" font-weight="bold" text-decoration="none" x="964.5" y="546">HUD_SimplerUI</text></g></g><g transform="translate(-86,-22) scale(1,1)"><path fill="none" stroke="#000000" d="M 1006 528 L 1006 219" stroke-miterlimit="10"/></g><g transform="translate(-86,-22) scale(1,1)"><path fill="#FFFFFF" stroke="none" d="M 1014.419035512032 239.3253497152483 L 1006 219 L 997.580964487968 239.3253497152483"/></g><g transform="translate(-86,-22) scale(1,1)"><path fill="none" stroke="#000000" d="M 1014.419035512032 239.3253497152483 L 1006 219 L 997.580964487968 239.3253497152483 L 1014.419035512032 239.3253497152483" stroke-miterlimit="10"/></g><g transform="translate(-86,-22) scale(1,1)"><g><path fill="none" stroke="none"/><text fill="#000000" stroke="none" font-family="Arial" font-size="13px" font-style="normal" font-weight="normal" text-decoration="none" x="1015.5" y="390">+is a</text></g></g><g transform="translate(-86,-22) scale(1,1)"><rect fill="#C0C0C0" stroke="none" x="599" y="535" width="168.529296875" height="44" opacity="0.2"/></g><g transform="translate(-86,-22) scale(1,1)"><rect fill="#ffffff" stroke="none" x="592" y="528" width="168.529296875" height="44"/></g><g transform="translate(-86,-22) scale(1,1)"><path fill="none" stroke="#000000" d="M 592 528 L 760.529296875 528 L 760.529296875 572 L 592 572 L 592 528 Z Z" stroke-miterlimit="10"/></g><g transform="translate(-86,-22) scale(1,1)"><path fill="none" stroke="#000000" d="M 592 553 L 760.529296875 553" stroke-miterlimit="10"/></g><g transform="translate(-86,-22) scale(1,1)"><path fill="none" stroke="#000000" d="M 592 563 L 760.529296875 563" stroke-miterlimit="10"/></g><g transform="translate(-86,-22) scale(1,1)"><g><path fill="none" stroke="none"/><text fill="#000000" stroke="none" font-family="Arial" font-size="13px" font-style="normal" font-weight="bold" text-decoration="none" x="618.104248046875" y="546">WBP_SimplerBase</text></g></g><g transform="translate(-86,-22) scale(1,1)"><path fill="none" stroke="#000000" d="M 671 528 L 671 386" stroke-miterlimit="10"/></g><g transform="translate(-86,-22) scale(1,1)"><path fill="#FFFFFF" stroke="none" d="M 679.419035512032 406.3253497152483 L 671 386 L 662.580964487968 406.3253497152483"/></g><g transform="translate(-86,-22) scale(1,1)"><path fill="none" stroke="#000000" d="M 679.419035512032 406.3253497152483 L 671 386 L 662.580964487968 406.3253497152483 L 679.419035512032 406.3253497152483" stroke-miterlimit="10"/></g><g transform="translate(-86,-22) scale(1,1)"><g><path fill="none" stroke="none"/><text fill="#000000" stroke="none" font-family="Arial" font-size="13px" font-style="normal" font-weight="normal" text-decoration="none" x="676.5" y="467">+is a</text></g></g></g></svg>